<?xml version="1.0" encoding="UTF-8" standalone="no"?>
<svg width="19px" height="27px" viewBox="0 0 19 27" version="1.1" xmlns="http://www.w3.org/2000/svg" xmlns:xlink="http://www.w3.org/1999/xlink" xmlns:sketch="http://www.bohemiancoding.com/sketch/ns">
    <!-- Generator: Sketch 3.2.2 (9983) - http://www.bohemiancoding.com/sketch -->
    <title>Slice 1</title>
    <desc>Created with Sketch.</desc>
    <defs></defs>
    <g id="Page-1" stroke="none" stroke-width="1" fill="none" fill-rule="evenodd" sketch:type="MSPage">
        <path d="M12,0 L2.0085302,0 C0.8992496,0 0,0.89833832 0,2.00732994 L0,24.9926701 C0,26.1012878 0.89092539,27 1.99742191,27 L17.0025781,27 C18.1057238,27 19,26.1090746 19,25.0025781 L19,8 L14.0059191,8 C12.8980806,8 12,7.1132936 12,6.00189865 L12,0 L12,0 Z M13,0 L13,5.99707067 C13,6.55097324 13.4509752,7 13.990778,7 L19,7 L13,0 L13,0 Z M9.5,10 C5.90996078,10 3,12.9099608 3,16.5 C3,20.0900392 5.90996078,23 9.5,23 C13.0900392,23 16,20.0896144 16,16.5 C16,12.9103856 13.0900392,10 9.5,10 L9.5,10 Z M9.5,22.1749036 C6.36578922,22.1749036 3.82509641,19.634232 3.82509641,16.5 C3.82509641,13.3657892 6.36578922,10.8250964 9.5,10.8250964 C12.634232,10.8250964 15.1749036,13.3657892 15.1749036,16.5 C15.1749036,19.634232 12.634232,22.1749036 9.5,22.1749036 L9.5,22.1749036 Z M9.90625,12.4630964 L9.10634641,12.4630964 L9.11894281,16.91925 L11.9245,19.3185572 L12.4197108,18.6202108 L9.90625,16.5125752 L9.90625,12.4630964 L9.90625,12.4630964 Z" id="document-search" fill="#157EFB" sketch:type="MSShapeGroup"></path>
    </g>
</svg>