<?xml version="1.0" encoding="UTF-8" standalone="no"?>
<svg width="19px" height="27px" viewBox="0 0 19 27" version="1.1" xmlns="http://www.w3.org/2000/svg" xmlns:xlink="http://www.w3.org/1999/xlink" xmlns:sketch="http://www.bohemiancoding.com/sketch/ns">
    <!-- Generator: Sketch 3.2.2 (9983) - http://www.bohemiancoding.com/sketch -->
    <title>Slice 1</title>
    <desc>Created with Sketch.</desc>
    <defs></defs>
    <g id="Page-1" stroke="none" stroke-width="1" fill="none" fill-rule="evenodd" sketch:type="MSPage">
        <g id="1428766888_698566-icon-54-document" sketch:type="MSLayerGroup" fill="#157EFB">
            <g id="Page-1" sketch:type="MSShapeGroup">
                <g id="icon-54-document">
                    <path d="M12.5,0 L2.00276013,0 C0.89666625,0 0,0.89833832 0,2.00732994 L0,24.9926701 C0,26.1012878 0.89092539,27 1.99742191,27 L17.0025781,27 C18.1057238,27 19,26.1017876 19,25.0092049 L19,7.5 L19,7 L13,0 L12.5,0 L12.5,0 Z M12,1 L1.9955775,1 C1.44573523,1 1,1.45526288 1,1.99545703 L1,25.004543 C1,25.5543187 1.45470893,26 1.9999602,26 L17.0000398,26 C17.5523026,26 18,25.5550537 18,25.0066023 L18,8 L13.9979131,8 C12.8944962,8 12,7.1134452 12,5.99408095 L12,1 L12,1 Z M13,1.5 L13,5.99121523 C13,6.54835167 13.4506511,7 13.9967388,7 L17.6999512,7 L13,1.5 L13,1.5 Z" id="document"></path>
                </g>
            </g>
        </g>
        <g id="1428765635_698533-icon-111-search" sketch:type="MSLayerGroup" transform="translate(3.000000, 9.000000)" fill="#157EFB">
            <g id="Page-1" sketch:type="MSShapeGroup">
                <g id="icon-111-search">
                    <path d="M8.53485036,10.1286004 C7.70961689,10.7166289 6.69988724,11.0625 5.609375,11.0625 C2.82206276,11.0625 0.5625,8.80293723 0.5625,6.015625 C0.5625,3.22831276 2.82206276,0.96875 5.609375,0.96875 C8.39668723,0.96875 10.65625,3.22831276 10.65625,6.015625 C10.65625,7.40928112 10.0913593,8.67099987 9.17805457,9.58430457 L12.7389906,13.1452406 C12.9023041,13.3085541 12.8983346,13.5704155 12.734375,13.734375 C12.5692724,13.8994776 12.306651,13.900401 12.1452406,13.7389906 L8.53485036,10.1286004 L8.53485036,10.1286004 Z M5.609375,10.46875 C8.06876813,10.46875 10.0625,8.47501813 10.0625,6.015625 C10.0625,3.55623185 8.06876813,1.5625 5.609375,1.5625 C3.14998187,1.5625 1.15625,3.55623185 1.15625,6.015625 C1.15625,8.47501813 3.14998187,10.46875 5.609375,10.46875 L5.609375,10.46875 L5.609375,10.46875 Z" id="search"></path>
                </g>
            </g>
        </g>
    </g>
</svg>