<?xml version="1.0" encoding="UTF-8" standalone="no"?>
<svg width="19px" height="27px" viewBox="0 0 19 27" version="1.1" xmlns="http://www.w3.org/2000/svg" xmlns:xlink="http://www.w3.org/1999/xlink" xmlns:sketch="http://www.bohemiancoding.com/sketch/ns">
    <!-- Generator: Sketch 3.2.2 (9983) - http://www.bohemiancoding.com/sketch -->
    <title>Slice 1</title>
    <desc>Created with Sketch.</desc>
    <defs></defs>
    <g id="Page-1" stroke="none" stroke-width="1" fill="none" fill-rule="evenodd" sketch:type="MSPage">
        <path d="M12,0 L2.0085302,0 C0.8992496,0 0,0.89833832 0,2.00732994 L0,24.9926701 C0,26.1012878 0.89092539,27 1.99742191,27 L17.0025781,27 C18.1057238,27 19,26.1090746 19,25.0025781 L19,8 L14.0059191,8 C12.8980806,8 12,7.1132936 12,6.00189865 L12,0 L12,0 Z M13,0 L13,5.99707067 C13,6.55097324 13.4509752,7 13.990778,7 L19,7 L13,0 L13,0 Z M7.20719132,18.9946619 L4.19787992,15.8269657 L3.19477612,16.8828644 L7.20719132,21.1064593 L15.8052239,12.0558987 L14.8021201,11 L7.20719132,18.9946619 Z" id="document-search" fill="#157EFB" sketch:type="MSShapeGroup"></path>
    </g>
</svg>