<?xml version="1.0" encoding="UTF-8" standalone="no"?>
<svg width="19px" height="27px" viewBox="0 0 19 27" version="1.1" xmlns="http://www.w3.org/2000/svg" xmlns:xlink="http://www.w3.org/1999/xlink" xmlns:sketch="http://www.bohemiancoding.com/sketch/ns">
    <!-- Generator: Sketch 3.2.2 (9983) - http://www.bohemiancoding.com/sketch -->
    <title>Slice 1</title>
    <desc>Created with Sketch.</desc>
    <defs></defs>
    <g id="Page-1" stroke="none" stroke-width="1" fill="none" fill-rule="evenodd" sketch:type="MSPage">
        <g id="1428771527_699347-icon-74-document-search" sketch:type="MSLayerGroup" fill="#157EFB">
            <g id="Page-1" sketch:type="MSShapeGroup">
                <g id="icon-74-document-search">
                    <path d="M12,0 L2.0085302,0 C0.8992496,0 0,0.89833832 0,2.00732994 L0,24.9926701 C0,26.1012878 0.89092539,27 1.99742191,27 L17.0025781,27 C18.1057238,27 19,26.1090746 19,25.0025781 L19,8 L14.0059191,8 C12.8980806,8 12,7.1132936 12,6.00189865 L12,0 L12,0 Z M13,0 L13,5.99707067 C13,6.55097324 13.4509752,7 13.990778,7 L19,7 L13,0 L13,0 Z M9.5,22 C13.089851,22 16,19.089851 16,15.5 C16,11.910149 13.089851,9 9.5,9 C5.91014899,9 3,11.910149 3,15.5 C3,19.089851 5.91014899,22 9.5,22 L9.5,22 L9.5,22 Z M9.5,21 C12.5375662,21 15,18.5375662 15,15.5 C15,12.4624338 12.5375662,10 9.5,10 C6.46243376,10 4,12.4624338 4,15.5 C4,18.5375662 6.46243376,21 9.5,21 L9.5,21 L9.5,21 Z M12.4586889,12 L9.50012445,14.9584309 L6.5418089,12 L6.00021538,12.5419424 L8.95853094,15.5 L6.00021538,18.4580576 L6.5418089,19 L9.50012445,16.0413046 L12.4586889,19 L12.9997846,18.4578087 L10.0418424,15.5 L12.9997846,12.5421913 L12.4586889,12 Z" id="document-search"></path>
                </g>
            </g>
        </g>
    </g>
</svg>