<?xml version="1.0" encoding="UTF-8" standalone="no"?>
<svg width="19px" height="27px" viewBox="0 0 19 27" version="1.1" xmlns="http://www.w3.org/2000/svg" xmlns:xlink="http://www.w3.org/1999/xlink" xmlns:sketch="http://www.bohemiancoding.com/sketch/ns">
    <!-- Generator: Sketch 3.2.2 (9983) - http://www.bohemiancoding.com/sketch -->
    <title>Slice 1</title>
    <desc>Created with Sketch.</desc>
    <defs></defs>
    <g id="Page-1" stroke="none" stroke-width="1" fill="none" fill-rule="evenodd" sketch:type="MSPage">
        <g id="document-complete" sketch:type="MSLayerGroup" fill="#157EFB">
            <g id="Page-1" sketch:type="MSShapeGroup">
                <path d="M7.20719132,18.9946619 L4.19787992,15.8269657 L3.19477612,16.8828644 L7.20719132,21.1064593 L15.8052239,12.0558987 L14.8021201,11 L7.20719132,18.9946619 L7.20719132,18.9946619 Z" id="document-search"></path>
                <path d="M12.5,0 L2.00276013,0 C0.89666625,0 0,0.89833832 0,2.00732994 L0,24.9926701 C0,26.1012878 0.89092539,27 1.99742191,27 L17.0025781,27 C18.1057238,27 19,26.1017876 19,25.0092049 L19,7.5 L19,7 L13,0 L12.5,0 L12.5,0 Z M12,1 L1.9955775,1 C1.44573523,1 1,1.45526288 1,1.99545703 L1,25.004543 C1,25.5543187 1.45470893,26 1.9999602,26 L17.0000398,26 C17.5523026,26 18,25.5550537 18,25.0066023 L18,8 L13.9979131,8 C12.8944962,8 12,7.1134452 12,5.99408095 L12,1 L12,1 Z M13,1.5 L13,5.99121523 C13,6.54835167 13.4506511,7 13.9967388,7 L17.6999512,7 L13,1.5 L13,1.5 Z" id="document"></path>
            </g>
        </g>
    </g>
</svg>