<?xml version="1.0" encoding="UTF-8" standalone="no"?>
<svg width="19px" height="27px" viewBox="0 0 19 27" version="1.1" xmlns="http://www.w3.org/2000/svg" xmlns:xlink="http://www.w3.org/1999/xlink" xmlns:sketch="http://www.bohemiancoding.com/sketch/ns">
    <!-- Generator: Sketch 3.2.2 (9983) - http://www.bohemiancoding.com/sketch -->
    <title>Slice 1</title>
    <desc>Created with Sketch.</desc>
    <defs></defs>
    <g id="Page-1" stroke="none" stroke-width="1" fill="none" fill-rule="evenodd" sketch:type="MSPage">
        <path d="M12,0 L2.0085302,0 C0.8992496,0 0,0.89833832 0,2.00732994 L0,24.9926701 C0,26.1012878 0.89092539,27 1.99742191,27 L17.0025781,27 C18.1057238,27 19,26.1090746 19,25.0025781 L19,8 L14.0059191,8 C12.8980806,8 12,7.1132936 12,6.00189865 L12,0 L12,0 Z M13,0 L13,5.99707067 C13,6.55097324 13.4509752,7 13.990778,7 L19,7 L13,0 L13,0 Z M11.3068795,18.9113 C10.4665402,19.5100923 9.43832765,19.8622945 8.32785376,19.8622945 C5.48952024,19.8622945 3.18859655,17.5613708 3.18859655,14.7230373 C3.18859655,11.8847038 5.48952024,9.58378006 8.32785376,9.58378006 C11.1661873,9.58378006 13.467111,11.8847038 13.467111,14.7230373 C13.467111,16.142204 12.8918801,17.4270183 11.9618574,18.3570409 L15.5879758,21.9831593 C15.7542787,22.1494623 15.7502365,22.4161169 15.5832757,22.5830777 C15.4151509,22.7512025 15.1477223,22.7521428 14.9833573,22.5877778 L11.3068795,18.9113 L11.3068795,18.9113 Z M8.32785376,19.257676 C10.8322657,19.257676 12.8624925,17.2274492 12.8624925,14.7230373 C12.8624925,12.2186253 10.8322657,10.1883986 8.32785376,10.1883986 C5.82344185,10.1883986 3.79321505,12.2186253 3.79321505,14.7230373 C3.79321505,17.2274492 5.82344185,19.257676 8.32785376,19.257676 L8.32785376,19.257676 L8.32785376,19.257676 Z" id="document-search" fill="#157EFB" sketch:type="MSShapeGroup"></path>
    </g>
</svg>