<?xml version="1.0" encoding="UTF-8" standalone="no"?>
<svg width="82px" height="92px" viewBox="0 0 82 92" version="1.1" xmlns="http://www.w3.org/2000/svg" xmlns:xlink="http://www.w3.org/1999/xlink" xmlns:sketch="http://www.bohemiancoding.com/sketch/ns">
    <!-- Generator: Sketch 3.2.2 (9983) - http://www.bohemiancoding.com/sketch -->
    <title>Slice 1</title>
    <desc>Created with Sketch.</desc>
    <defs></defs>
    <g id="Page-1" stroke="none" stroke-width="1" fill="none" fill-rule="evenodd" sketch:type="MSPage">
        <g id="Group" sketch:type="MSLayerGroup" transform="translate(43.000000, 46.000000) scale(-1, 1) translate(-43.000000, -46.000000) translate(4.000000, 0.000000)" stroke="#979797" stroke-linecap="square" fill="#979797">
            <path d="M0,1.75 L0,0 L3.5,0 L54.5,0 L58,0 L58,7 L54.5,7 L7,7 L7,85 L54.5,85 L58,85 L58,92 L54.5,92 L3.5,92 L1.75,92 L0,92 L0,88.5 L0,3.5 L0,1.75 Z M30.7018913,49 L74.5,49 L78,49 L78,42 L74.5,42 L31.2106692,42 L31.2106692,42 L48.9216688,25.0269587 L51.4486275,22.6052899 L46.6052899,17.5513725 L44.0783312,19.9730413 L20.0783312,42.9730413 L18.8148519,44.1838757 L17.5513725,45.3947101 L19.9730413,47.9216688 L42.9730413,71.9216688 L45.3947101,74.4486275 L50.4486275,69.6052899 L48.0269587,67.0783312 L30.7018913,49 L30.7018913,49 Z" id="Line" sketch:type="MSShapeGroup"></path>
        </g>
    </g>
</svg>