<?xml version="1.0" encoding="UTF-8" standalone="no"?>
<svg width="82px" height="92px" viewBox="0 0 82 92" version="1.1" xmlns="http://www.w3.org/2000/svg" xmlns:xlink="http://www.w3.org/1999/xlink" xmlns:sketch="http://www.bohemiancoding.com/sketch/ns">
    <!-- Generator: Sketch 3.2.2 (9983) - http://www.bohemiancoding.com/sketch -->
    <title>Slice 1</title>
    <desc>Created with Sketch.</desc>
    <defs></defs>
    <g id="Page-1" stroke="none" stroke-width="1" fill="none" fill-rule="evenodd" sketch:type="MSPage">
        <g id="Group" sketch:type="MSLayerGroup" transform="translate(41.000000, 46.000000) scale(-1, 1) translate(-41.000000, -46.000000) " stroke="#979797" stroke-linecap="square" fill="#979797">
            <path d="M0,1.75 L0,0 L3.5,0 L54.5,0 L58,0 L58,7 L54.5,7 L7,7 L7,85 L54.5,85 L58,85 L58,92 L54.5,92 L3.5,92 L1.75,92 L0,92 L0,88.5 L0,3.5 L0,1.75 Z M68.2981087,49 L24.5,49 L21,49 L21,42 L24.5,42 L67.7893308,42 L50.0783312,25.0269587 L47.5513725,22.6052899 L52.3947101,17.5513725 L54.9216688,19.9730413 L78.9216688,42.9730413 L80.1851481,44.1838757 L81.4486275,45.3947101 L79.0269587,47.9216688 L56.0269587,71.9216688 L53.6052899,74.4486275 L48.5513725,69.6052899 L50.9730413,67.0783312 L68.2981087,49 L68.2981087,49 Z" id="Line" sketch:type="MSShapeGroup"></path>
        </g>
    </g>
</svg>